<svg class="footer__icon footer__icon--big" xmlns="http://www.w3.org/2000/svg" width="17.617" height="22"
     viewBox="0 0 17.617 22">
    <g id="pin" transform="translate(-51.003)">
        <g id="Group_103" data-name="Group 103" transform="translate(54.628 3.552)">
            <g id="Group_102" data-name="Group 102" transform="translate(0)">
                <path id="Path_378" data-name="Path 378"
                      d="M136.183,80A5.183,5.183,0,1,0,137.6,90.168a.829.829,0,1,0-.454-1.6A3.52,3.52,0,1,1,139.56,86.2a.829.829,0,0,0,1.589.476A5.186,5.186,0,0,0,136.183,80Z"
                      transform="translate(-131 -80)" fill="#fff"></path>
            </g>
        </g>
        <g id="Group_105" data-name="Group 105" transform="translate(51.003)">
            <g id="Group_104" data-name="Group 104" transform="translate(0)">
                <path id="Path_379" data-name="Path 379"
                      d="M66.037,2.577A8.808,8.808,0,0,0,51,8.8a9.2,9.2,0,0,0,1.454,4.912,26.162,26.162,0,0,0,3.108,3.857A29.334,29.334,0,0,1,58.827,21.6a.859.859,0,0,0,.726.4h.516a.859.859,0,0,0,.726-.4,29.334,29.334,0,0,1,3.262-4.031,26.157,26.157,0,0,0,3.108-3.857A9.205,9.205,0,0,0,68.62,8.8,8.751,8.751,0,0,0,66.037,2.577ZM62.789,16.41a35.419,35.419,0,0,0-2.977,3.568,35.413,35.413,0,0,0-2.977-3.568c-2.205-2.415-4.11-4.5-4.113-7.609A7.09,7.09,0,0,1,66.9,8.8C66.9,11.909,64.994,13.995,62.789,16.41Z"
                      transform="translate(-51.003)" fill="#fff"></path>
            </g>
        </g>
    </g>
</svg>