<svg viewBox="0 0 200 200" xmlns="http://www.w3.org/2000/svg">
    <path fill="#cdea7d"
          d="M45.1,-64.9C57.7,-70.7,66.9,-57.3,73.7,-43.3C80.4,-29.3,84.7,-14.6,85.1,0.2C85.5,15.1,82.1,30.3,68.9,33.2C55.8,36.2,33.1,27.1,20,28.8C6.9,30.6,3.4,43.2,1.3,41C-0.9,38.8,-1.8,21.7,-12.3,18.5C-22.8,15.2,-42.9,25.8,-43.1,25C-43.2,24.3,-23.4,12.1,-20.3,1.8C-17.2,-8.5,-30.7,-17,-37.8,-30.4C-45,-43.8,-45.7,-62,-38.3,-59.3C-30.9,-56.6,-15.4,-32.9,0.4,-33.5C16.2,-34.1,32.4,-59.1,45.1,-64.9Z"
          transform="translate(100 100)"/>
</svg>