<svg viewBox="0 0 200 200" xmlns="http://www.w3.org/2000/svg">
    <path fill="#cdea7d"
          d="M22.4,-42.5C27.5,-35.9,29,-26.8,25.9,-19.3C22.9,-11.7,15.2,-5.9,23.3,4.7C31.4,15.2,55.1,30.4,55.9,33.9C56.7,37.5,34.5,29.4,21.4,29.3C8.2,29.2,4.1,37.1,0.5,36.3C-3.2,35.6,-6.4,26.1,-9.1,20.2C-11.9,14.2,-14.1,11.9,-12.6,9.1C-11.1,6.3,-5.8,3.2,-16.1,-5.9C-26.3,-15,-52.2,-30.1,-56.6,-37.9C-61.1,-45.7,-44.1,-46.3,-31.1,-48.3C-18,-50.3,-9,-53.6,-0.2,-53.3C8.7,-53,17.3,-49,22.4,-42.5Z"
          transform="translate(100 100)"/>
</svg>