<svg viewBox="0 0 200 200" xmlns="http://www.w3.org/2000/svg">
    <path fill="#83DEFC" d="M15.9,-17.6C30.2,-19.4,57.8,-34.4,74,-33.6C90.2,-32.9,95,-16.4,83.4,-6.7C71.8,3.1,43.8,6.1,28.5,8.4C13.2,10.6,10.5,12.1,7.9,25.1C5.2,38.1,2.6,62.6,-6.2,73.3C-14.9,84,-29.9,80.8,-30.2,66.4C-30.6,52.1,-16.4,26.7,-21,13.8C-25.7,0.8,-49.1,0.4,-52.8,-2.1C-56.5,-4.7,-40.4,-9.4,-34.5,-20.1C-28.6,-30.9,-32.9,-47.7,-28.9,-51.8C-24.8,-55.9,-12.4,-47.3,-5.8,-37.3C0.9,-27.3,1.7,-15.9,15.9,-17.6Z" transform="translate(100 100)" />
</svg>